<svg width="1953px" height="800px"
 viewBox="0.00 0.00 332.00 136.00" xmlns="http://www.w3.org/2000/svg" xmlns:xlink="http://www.w3.org/1999/xlink">
<g id="graph0" class="graph" transform="scale(1.0 1.0) rotate(0.0) translate(4.0 132.0)">
<polygon fill="white" stroke="none" points="-4,4 -4,-132 328,-132 328,4 -4,4"/>
<!-- a -->
<g id="node1" class="node">
<title>a</title>
<ellipse fill="none" stroke="black" cx="297" cy="-87" rx="27" ry="18"/>
<text text-anchor="middle" x="297" y="-81.95" font-family="arial" font-size="14.00">a</text>
</g>
<!-- b -->
<g id="node2" class="node">
<title>b</title>
<ellipse fill="none" stroke="black" cx="207" cy="-64" rx="27" ry="18"/>
<text text-anchor="middle" x="207" y="-58.95" font-family="arial" font-size="14.00">b</text>
</g>
<!-- b&#45;&gt;a -->
<g id="edge1" class="edge link&#45;class">
<title>b&#45;&gt;a</title>
<path fill="none" stroke="black" d="M232.51,-70.41C241.12,-72.66 250.97,-75.23 260.3,-77.67"/>
<polygon fill="black" stroke="black" points="259.29,-81.02 269.85,-80.17 261.06,-74.25 259.29,-81.02"/>
</g>
<!-- c -->
<g id="node3" class="node">
<title>c</title>
<ellipse fill="none" stroke="black" cx="117" cy="-110" rx="27" ry="18"/>
<text text-anchor="middle" x="117" y="-104.95" font-family="arial" font-size="14.00">c</text>
</g>
<!-- c&#45;&gt;a -->
<g id="edge2" class="edge link&#45;class">
<title>c&#45;&gt;a</title>
<path fill="none" stroke="black" d="M143.88,-106.66C174.2,-102.74 224.66,-96.22 259.08,-91.77"/>
<polygon fill="black" stroke="black" points="259.12,-95.3 268.58,-90.54 258.22,-88.35 259.12,-95.3"/>
</g>
<!-- c&#45;&gt;b -->
<g id="edge3" class="edge link&#45;class">
<title>c&#45;&gt;b</title>
<path fill="none" stroke="black" d="M138.85,-99.1C149.63,-93.47 162.98,-86.49 174.94,-80.23"/>
<polygon fill="black" stroke="black" points="176.41,-83.42 183.65,-75.68 173.16,-77.21 176.41,-83.42"/>
</g>
<!-- d -->
<g id="node4" class="node">
<title>d</title>
<ellipse fill="none" stroke="black" cx="117" cy="-18" rx="27" ry="18"/>
<text text-anchor="middle" x="117" y="-12.95" font-family="arial" font-size="14.00">d</text>
</g>
<!-- d&#45;&gt;b -->
<g id="edge4" class="edge link&#45;class">
<title>d&#45;&gt;b</title>
<path fill="none" stroke="black" d="M138.85,-28.9C149.63,-34.53 162.98,-41.51 174.94,-47.77"/>
<polygon fill="black" stroke="black" points="173.16,-50.79 183.65,-52.32 176.41,-44.58 173.16,-50.79"/>
</g>
<!-- e -->
<g id="node5" class="node">
<title>e</title>
<ellipse fill="none" stroke="black" cx="27" cy="-41" rx="27" ry="18"/>
<text text-anchor="middle" x="27" y="-35.95" font-family="arial" font-size="14.00">e</text>
</g>
<!-- e&#45;&gt;b -->
<g id="edge5" class="edge link&#45;class">
<title>e&#45;&gt;b</title>
<path fill="none" stroke="black" d="M53.88,-44.34C84.2,-48.26 134.66,-54.78 169.08,-59.23"/>
<polygon fill="black" stroke="black" points="168.22,-62.65 178.58,-60.46 169.12,-55.7 168.22,-62.65"/>
</g>
<!-- e&#45;&gt;d -->
<g id="edge6" class="edge link&#45;class">
<title>e&#45;&gt;d</title>
<path fill="none" stroke="black" d="M52.51,-34.59C61.12,-32.34 70.97,-29.77 80.3,-27.33"/>
<polygon fill="black" stroke="black" points="81.06,-30.75 89.85,-24.83 79.29,-23.98 81.06,-30.75"/>
</g>
</g>
</svg>
